<svg width="57" height="56" viewBox="0 0 57 56" fill="none" xmlns="http://www.w3.org/2000/svg">
<g id="ApricotMark">
<path id="Vector" d="M25.3783 51.3314C25.1241 51.3314 24.8717 51.2933 24.6265 51.2209C17.641 49.1156 11.8304 42.9446 9.08486 34.712C7.71935 30.6196 7.22363 26.2432 7.64672 22.0517C8.11339 17.4429 9.62961 13.2171 12.1536 9.49046L16.5933 12.8018C12.7419 18.487 11.8776 25.786 14.2255 32.8239C16.3391 39.1608 20.6353 43.9105 25.7651 45.6119C33.141 45.4747 37.4626 41.4642 39.7996 38.0881C44.0323 31.9742 44.8095 23.8064 43.3895 19.2243C41.9151 14.4593 38.81 11.2014 35.0857 10.5098C32.3129 9.99344 29.7163 11.047 27.9604 13.3962C25.6979 16.4236 24.8481 19.1977 25.431 21.6383C25.9721 23.896 27.6681 25.6736 28.9972 26.7653C30.5879 28.0723 32.0714 28.7639 32.0878 28.7715L29.9215 34.0147C29.5947 33.868 21.9155 30.3147 20.1578 23.0672C19.1264 18.8128 20.3085 14.3736 23.6732 9.8696C26.6693 5.86479 31.2906 3.99956 36.039 4.88168C41.7789 5.94862 46.4655 10.6507 48.5737 17.4582C49.6015 20.7809 49.7812 24.9381 49.0767 29.1659C48.3231 33.6908 46.6398 37.9395 44.2084 41.4489C41.087 45.9587 35.2855 51.3333 25.3765 51.3333L25.3783 51.3314Z" fill="white"/>
</g>
</svg>
