<svg width="211" height="66" viewBox="0 0 211 66" fill="none" xmlns="http://www.w3.org/2000/svg">
<g clipPath="url(#clip0_1357_11129)">
<path d="M206.569 23.2672C208.555 23.2672 210.5 21.6712 210.5 19.7042V16.359H201.212V11.6923C201.212 9.72344 199.603 8.12939 197.619 8.12939H192.671V39.308C192.671 46.1972 196.245 49.6409 203.394 49.6409H210.118V42.5529H204.788C203.496 42.5529 202.577 42.303 202.031 41.8013C201.485 41.3015 201.214 40.4893 201.214 39.3685V23.2691H206.569V23.2672Z" fill="white"/>
<path d="M179.267 17.9512C176.642 16.5294 173.714 15.8176 170.483 15.8176C167.253 15.8176 164.325 16.5294 161.7 17.9512C159.075 19.3729 157.005 21.3854 155.491 23.9885C153.976 26.5916 153.22 29.596 153.22 33C153.22 36.4039 153.956 39.4083 155.432 42.0114C156.906 44.6145 158.935 46.627 161.52 48.0487C164.105 49.4705 167.013 50.1823 170.243 50.1823C173.473 50.1823 176.472 49.4724 179.118 48.0487C181.762 46.627 183.862 44.6145 185.418 42.0114C186.972 39.4083 187.749 36.4039 187.749 33C187.749 29.596 186.991 26.5935 185.477 23.9885C183.964 21.3854 181.892 19.3729 179.267 17.9512ZM177.814 38.4068C177.005 39.8892 175.926 41.0005 174.573 41.7407C173.219 42.4828 171.776 42.852 170.241 42.852C167.818 42.852 165.808 42.002 164.214 40.3C162.618 38.598 161.822 36.1653 161.822 33C161.822 29.8346 162.639 27.4037 164.275 25.6999C165.911 23.9979 167.941 23.1479 170.363 23.1479C172.786 23.1479 174.836 23.9998 176.512 25.6999C178.189 27.4037 179.027 29.8365 179.027 33C179.027 35.1241 178.622 36.9264 177.816 38.4068H177.814Z" fill="white"/>
<path d="M133.037 22.9681C134.734 22.9681 136.156 23.3789 137.307 24.2005C138.458 25.0222 139.276 26.1524 139.76 27.595H148.907C147.977 23.8711 146.15 20.9784 143.424 18.9148C140.698 16.8532 137.254 15.8214 133.096 15.8214C129.864 15.8214 126.996 16.5332 124.493 17.955C121.989 19.3767 120.03 21.3797 118.617 23.962C117.203 26.5443 116.496 29.5582 116.496 33.0038C116.496 36.4493 117.203 39.4614 118.617 42.0455C120.03 44.6278 121.989 46.6327 124.493 48.0525C126.998 49.4743 129.864 50.1862 133.096 50.1862C137.216 50.1862 140.648 49.126 143.393 47.0018C146.139 44.8796 147.977 42.0152 148.907 38.4106H139.76C138.71 41.4549 136.467 42.977 133.037 42.977C130.614 42.977 128.695 42.1061 127.281 40.3644C125.868 38.6227 125.162 36.1691 125.162 33.0057C125.162 29.8422 125.868 27.328 127.281 25.5863C128.693 23.8446 130.614 22.9719 133.037 22.9719V22.9681Z" fill="white"/>
<path d="M108.129 16.359H103.242V49.6409H111.724V19.9239C111.724 17.955 110.114 16.3609 108.131 16.3609L108.129 16.359Z" fill="white"/>
<path d="M103.242 8.22791V11.9442H106.989C111.292 11.9442 114.782 8.48349 114.782 4.21629V0.5H111.035C106.731 0.5 103.242 3.96071 103.242 8.22791Z" fill="white"/>
<path d="M88.4612 21.5256V19.922C88.4612 17.9531 86.8518 16.3591 84.8683 16.3591H79.981V49.641H88.4631V33.0606C88.4631 29.9767 89.1389 27.8147 90.4925 26.5727C91.846 25.3327 93.8544 24.7099 96.5195 24.7099H98.7607V15.8782C96.4985 15.8782 94.4901 16.3799 92.7337 17.3795C90.9774 18.381 89.5532 19.763 88.4631 21.5256H88.4612Z" fill="white"/>
<path d="M67.471 17.9209C65.1477 16.5199 62.5532 15.8176 59.6857 15.8176C57.223 15.8176 55.0314 16.3287 53.1127 17.3491C51.1941 18.3714 49.6897 19.6418 48.5997 21.1639V19.922C48.5997 17.9531 46.9903 16.359 45.0067 16.359H40.1195V65.5H45.0067C46.9922 65.5 48.5997 63.904 48.5997 61.937V44.8947C49.7718 46.4168 51.2953 47.6796 53.1738 48.6792C55.0505 49.6788 57.223 50.1804 59.6857 50.1804C62.5532 50.1804 65.1477 49.4591 67.471 48.0184C69.7925 46.5777 71.629 44.5445 72.9845 41.9206C74.3361 39.2985 75.0138 36.2846 75.0138 32.8788C75.0138 29.473 74.338 26.4818 72.9845 23.8976C71.6309 21.3153 69.7925 19.3237 67.471 17.9209ZM65.1076 38.1664C64.279 39.6488 63.1889 40.7903 61.8354 41.5911C60.4818 42.392 59.0195 42.7933 57.4426 42.7933C55.8657 42.7933 54.4644 42.4033 53.1108 41.6214C51.7573 40.8396 50.6672 39.7093 49.8406 38.227C49.012 36.7465 48.5977 35.0029 48.5977 33C48.5977 30.997 49.012 29.2553 49.8406 27.7729C50.6672 26.2925 51.7573 25.1603 53.1108 24.3785C54.4644 23.5966 55.9077 23.2066 57.4426 23.2066C58.9775 23.2066 60.4818 23.5871 61.8354 24.3482C63.187 25.1092 64.279 26.2205 65.1076 27.682C65.9361 29.1455 66.3504 30.8758 66.3504 32.8788C66.3504 34.8818 65.9361 36.6841 65.1076 38.1645V38.1664Z" fill="white"/>
<path d="M26.9123 19.9238V21.1052C25.7802 19.5831 24.2777 18.3222 22.3992 17.3207C20.5206 16.3211 18.329 15.8195 15.8262 15.8195C12.9587 15.8195 10.3643 16.5199 8.04282 17.9228C5.71945 19.3256 3.88291 21.3267 2.52936 23.9298C1.17582 26.5348 0.5 29.5165 0.5 32.8807C0.5 36.2448 1.17582 39.2985 2.52936 41.9224C3.881 44.5464 5.71945 46.5777 8.04282 48.0203C10.3643 49.4629 12.9396 50.1823 15.767 50.1823C18.2698 50.1823 20.4805 49.6712 22.4011 48.6508C24.3178 47.6285 25.8241 46.3373 26.9142 44.7754V46.0779C26.9142 48.0468 28.5235 49.6409 30.5071 49.6409H35.4555V16.359H30.5071C28.5216 16.359 26.9142 17.955 26.9142 19.922L26.9123 19.9238ZM25.7019 38.2573C24.8925 39.7188 23.8024 40.8396 22.4297 41.6214C21.0552 42.4033 19.5833 42.7933 18.0083 42.7933C16.4333 42.7933 15.0301 42.3938 13.6765 41.5911C12.323 40.7903 11.2329 39.6393 10.4044 38.1361C9.57582 36.6348 9.16345 34.8818 9.16345 32.8788C9.16345 30.8758 9.57773 29.1455 10.4044 27.682C11.2329 26.2205 12.3135 25.1092 13.646 24.3482C14.9785 23.5871 16.4333 23.2066 18.0083 23.2066C19.5833 23.2066 21.0571 23.5966 22.4297 24.3785C23.8024 25.1603 24.8925 26.2811 25.7019 27.7426C26.5095 29.206 26.9123 30.9572 26.9123 32.9999C26.9123 35.0427 26.5075 36.7957 25.7019 38.2573Z" fill="white"/>
</g>
<defs>
<clipPath id="clip0_1357_11129">
<rect width="210" height="65" fill="white" transform="translate(0.5 0.5)"/>
</clipPath>
</defs>
</svg>
