<svg width="64" height="20" viewBox="0 0 64 20" fill="none" xmlns="http://www.w3.org/2000/svg">
<g id="logotype" clipPath="url(#clip0_2633_14534)">
<g id="Layer_1-2">
<path id="Vector" d="M32.802 4.87988H31.3125V15.1205H33.8975V5.97675C33.8975 5.37094 33.407 4.88047 32.8025 4.88047H32.802V4.87988Z" fill="#3B1E2B"/>
<path id="Vector_2" d="M31.3125 2.37782V3.52129H32.4546C33.766 3.52129 34.8296 2.45646 34.8296 1.14347V0H33.6875C32.3761 0 31.3125 1.06483 31.3125 2.37782Z" fill="#3B1E2B"/>
<path id="Vector_3" d="M8.04945 5.97676V6.34024C7.70444 5.8719 7.24655 5.48395 6.67404 5.1758C6.10153 4.86823 5.4336 4.71387 4.67084 4.71387C3.79695 4.71387 3.00625 4.9294 2.29876 5.36104C1.59069 5.79268 1.03098 6.4084 0.618473 7.20935C0.205964 8.01089 0 8.92835 0 9.96347C0 10.9986 0.205964 11.9382 0.618473 12.7456C1.0304 13.5529 1.59069 14.178 2.29876 14.6218C3.00625 15.0657 3.79113 15.2871 4.6528 15.2871C5.41556 15.2871 6.08931 15.1298 6.67462 14.8158C7.25876 14.5012 7.71782 14.104 8.05004 13.6234V14.0242C8.05004 14.63 8.54051 15.1205 9.14502 15.1205H10.6531V4.87988H9.14502C8.53993 4.87988 8.05004 5.37094 8.05004 5.97617L8.04945 5.97676ZM7.68058 11.6178C7.43389 12.0675 7.10167 12.4124 6.68335 12.6529C6.26444 12.8935 5.81585 13.0135 5.33585 13.0135C4.85585 13.0135 4.42822 12.8906 4.01571 12.6436C3.6032 12.3972 3.27098 12.043 3.01847 11.5805C2.76596 11.1186 2.64029 10.5792 2.64029 9.96289C2.64029 9.34659 2.76655 8.81418 3.01847 8.36389C3.27098 7.91419 3.60029 7.57226 4.0064 7.33809C4.41251 7.10392 4.85585 6.98683 5.33585 6.98683C5.81585 6.98683 6.26502 7.10683 6.68335 7.34741C7.10167 7.58799 7.43389 7.93283 7.68058 8.38253C7.92669 8.83282 8.04945 9.37164 8.04945 10.0002C8.04945 10.6287 7.92611 11.1681 7.68058 11.6178Z" fill="#3B1E2B"/>
<path id="Vector_4" d="M20.4099 5.36006C19.7019 4.929 18.9112 4.71289 18.0373 4.71289C17.2867 4.71289 16.6188 4.87017 16.0341 5.18414C15.4493 5.4987 14.9909 5.88957 14.6587 6.35791V5.97578C14.6587 5.36996 14.1682 4.87949 13.5637 4.87949H12.0742V19.9998H13.5637C14.1688 19.9998 14.6587 19.5087 14.6587 18.9035V13.6597C15.0159 14.128 15.4802 14.5166 16.0527 14.8242C16.6246 15.1317 17.2867 15.2861 18.0373 15.2861C18.9112 15.2861 19.7019 15.0641 20.4099 14.6209C21.1174 14.1776 21.6771 13.5519 22.0902 12.7446C22.5021 11.9378 22.7087 11.0104 22.7087 9.9625C22.7087 8.91456 22.5027 7.99419 22.0902 7.19906C21.6777 6.40451 21.1174 5.7917 20.4099 5.36006ZM19.6896 11.5895C19.4371 12.0456 19.1049 12.3968 18.6924 12.6432C18.2799 12.8896 17.8342 13.0131 17.3536 13.0131C16.8731 13.0131 16.446 12.8931 16.0335 12.6525C15.621 12.412 15.2888 12.0642 15.0368 11.6081C14.7843 11.1526 14.6581 10.6161 14.6581 9.99978C14.6581 9.38348 14.7843 8.84757 15.0368 8.39146C15.2888 7.93593 15.621 7.58759 16.0335 7.34701C16.446 7.10644 16.8859 6.98644 17.3536 6.98644C17.8214 6.98644 18.2799 7.10352 18.6924 7.33769C19.1043 7.57186 19.4371 7.9138 19.6896 8.3635C19.9421 8.81378 20.0684 9.3462 20.0684 9.9625C20.0684 10.5788 19.9421 11.1333 19.6896 11.5889V11.5895Z" fill="#3B1E2B"/>
<path id="Vector_5" d="M26.8071 6.46908V5.97569C26.8071 5.36988 26.3166 4.8794 25.7121 4.8794H24.2227V15.12H26.8077V10.0183C26.8077 9.06942 27.0136 8.40419 27.4261 8.02206C27.8387 7.64051 28.4507 7.44887 29.2629 7.44887H29.946V4.73145C29.2565 4.73145 28.6445 4.88581 28.1092 5.19338C27.5739 5.50153 27.1399 5.92676 26.8077 6.46908H26.8071Z" fill="#3B1E2B"/>
<path id="Vector_6" d="M40.3924 6.91285C40.9097 6.91285 41.3431 7.03926 41.694 7.29207C42.0448 7.54488 42.2938 7.89264 42.4416 8.33652H45.2291C44.9457 7.19071 44.3889 6.30063 43.5581 5.66569C42.7273 5.03134 41.6777 4.71387 40.4105 4.71387C39.4255 4.71387 38.5516 4.93289 37.7888 5.37036C37.0255 5.80783 36.4285 6.42413 35.998 7.21867C35.5668 8.01322 35.3516 8.94058 35.3516 10.0008C35.3516 11.0609 35.5668 11.9877 35.998 12.7828C36.4285 13.5774 37.0255 14.1943 37.7888 14.6312C38.5521 15.0686 39.4255 15.2876 40.4105 15.2876C41.666 15.2876 42.7121 14.9614 43.5488 14.3079C44.3855 13.6549 44.9457 12.7735 45.2291 11.6644H42.4416C42.1216 12.6011 41.438 13.0694 40.3924 13.0694C39.6541 13.0694 39.0694 12.8015 38.6383 12.2656C38.2077 11.7297 37.9924 10.9747 37.9924 10.0013C37.9924 9.02796 38.2077 8.25438 38.6383 7.71847C39.0688 7.18256 39.6541 6.91402 40.3924 6.91402V6.91285Z" fill="#3B1E2B"/>
<path id="Vector_7" d="M54.4813 5.36938C53.6813 4.93192 52.7888 4.71289 51.8044 4.71289C50.8199 4.71289 49.9274 4.93192 49.1274 5.36938C48.3274 5.80685 47.6967 6.42606 47.2353 7.22702C46.7734 8.02797 46.543 8.95242 46.543 9.99978C46.543 11.0471 46.7675 11.9716 47.2173 12.7725C47.6665 13.5735 48.2849 14.1927 49.0727 14.6302C49.8605 15.0676 50.7466 15.2867 51.731 15.2867C52.7155 15.2867 53.6295 15.0682 54.4359 14.6302C55.2417 14.1927 55.8817 13.5735 56.3559 12.7725C56.8295 11.9716 57.0663 11.0471 57.0663 9.99978C57.0663 8.95242 56.8353 8.02855 56.374 7.22702C55.9126 6.42606 55.2813 5.80685 54.4813 5.36938ZM54.0385 11.6634C53.7918 12.1195 53.4631 12.4615 53.0506 12.6892C52.6381 12.9176 52.1982 13.0312 51.7305 13.0312C50.9921 13.0312 50.3795 12.7696 49.8937 12.2459C49.4073 11.7223 49.1646 10.9737 49.1646 9.99978C49.1646 9.02582 49.4137 8.27787 49.9123 7.75361C50.4109 7.22993 51.0294 6.96838 51.7677 6.96838C52.506 6.96838 53.1309 7.23051 53.6417 7.75361C54.1526 8.27787 54.408 9.0264 54.408 9.99978C54.408 10.6534 54.2846 11.2079 54.0391 11.6634H54.0385Z" fill="#3B1E2B"/>
<path id="Vector_8" d="M62.802 7.00543C63.4071 7.00543 64 6.51437 64 5.90914V4.87984H61.1695V3.44395C61.1695 2.83813 60.679 2.34766 60.0745 2.34766H58.5664V11.9411C58.5664 14.0608 59.6556 15.1204 61.8345 15.1204H63.8836V12.9395H62.2592C61.8653 12.9395 61.5855 12.8626 61.4191 12.7082C61.2527 12.5544 61.17 12.3046 61.17 11.9597V7.00601H62.802V7.00543Z" fill="#3B1E2B"/>
</g>
</g>
<defs>
<clipPath id="clip0_2633_14534">
<rect width="64" height="20" fill="white"/>
</clipPath>
</defs>
</svg>
